<svg xmlns="http://www.w3.org/2000/svg" viewBox="0 0 677 94">
  <path d="M34.24 88L19.12 88L19.12 40.96L4 40.96L4 28.48L19.12 28.48L19.12 17.44Q19.12 11.32 22.78 7.66Q26.44 4 32.32 4L32.32 4L47.92 4L47.92 16.48L37.60 16.48Q34.24 16.48 34.24 20.08L34.24 20.08L34.24 28.48L49.84 28.48L49.84 40.96L34.24 40.96L34.24 88ZM86.80 89.68L86.80 89.68Q77.92 89.68 71.14 85.90Q64.36 82.12 60.58 75.22Q56.80 68.32 56.80 58.96L56.80 58.96L56.80 57.52Q56.80 48.16 60.52 41.26Q64.24 34.36 70.96 30.58Q77.68 26.80 86.56 26.80L86.56 26.80Q95.32 26.80 101.80 30.70Q108.28 34.60 111.88 41.50Q115.48 48.40 115.48 57.52L115.48 57.52L115.48 62.68L72.16 62.68Q72.40 68.80 76.72 72.64Q81.04 76.48 87.28 76.48L87.28 76.48Q93.64 76.48 96.64 73.72Q99.64 70.96 101.20 67.60L101.20 67.60L113.56 74.08Q111.88 77.20 108.70 80.86Q105.52 84.52 100.24 87.10Q94.96 89.68 86.80 89.68ZM72.28 51.40L72.28 51.40L100.12 51.40Q99.64 46.24 95.98 43.12Q92.32 40 86.44 40L86.44 40Q80.32 40 76.72 43.12Q73.12 46.24 72.28 51.40ZM156.04 89.68L156.04 89.68Q147.16 89.68 140.38 85.90Q133.60 82.12 129.82 75.22Q126.04 68.32 126.04 58.96L126.04 58.96L126.04 57.52Q126.04 48.16 129.76 41.26Q133.48 34.36 140.20 30.58Q146.92 26.80 155.80 26.80L155.80 26.80Q164.56 26.80 171.04 30.70Q177.52 34.60 181.12 41.50Q184.72 48.40 184.72 57.52L184.72 57.52L184.72 62.68L141.40 62.68Q141.64 68.80 145.96 72.64Q150.28 76.48 156.52 76.48L156.52 76.48Q162.88 76.48 165.88 73.72Q168.88 70.96 170.44 67.60L170.44 67.60L182.80 74.08Q181.12 77.20 177.94 80.86Q174.76 84.52 169.48 87.10Q164.20 89.68 156.04 89.68ZM141.52 51.40L141.52 51.40L169.36 51.40Q168.88 46.24 165.22 43.12Q161.56 40 155.68 40L155.68 40Q149.56 40 145.96 43.12Q142.36 46.24 141.52 51.40ZM233.92 89.68L233.92 89.68Q225.88 89.68 221.56 86.92Q217.24 84.16 215.20 80.80L215.20 80.80L213.04 80.80L213.04 88L198.16 88L198.16 4L213.28 4L213.28 35.32L215.44 35.32Q216.76 33.16 218.98 31.24Q221.20 29.32 224.86 28.06Q228.52 26.80 233.92 26.80L233.92 26.80Q241.12 26.80 247.24 30.34Q253.36 33.88 257.08 40.72Q260.80 47.56 260.80 57.28L260.80 57.28L260.80 59.20Q260.80 68.92 257.08 75.76Q253.36 82.60 247.24 86.14Q241.12 89.68 233.92 89.68ZM229.36 76.48L229.36 76.48Q236.32 76.48 241 71.98Q245.68 67.48 245.68 58.84L245.68 58.84L245.68 57.64Q245.68 49 241.06 44.50Q236.44 40 229.36 40L229.36 40Q222.40 40 217.72 44.50Q213.04 49 213.04 57.64L213.04 57.64L213.04 58.84Q213.04 67.48 217.72 71.98Q222.40 76.48 229.36 76.48ZM289.84 88L274.72 88L274.72 4L289.84 4L289.84 88ZM333.76 89.68L333.76 89.68Q324.88 89.68 318.10 85.90Q311.32 82.12 307.54 75.22Q303.76 68.32 303.76 58.96L303.76 58.96L303.76 57.52Q303.76 48.16 307.48 41.26Q311.20 34.36 317.92 30.58Q324.64 26.80 333.52 26.80L333.52 26.80Q342.28 26.80 348.76 30.70Q355.24 34.60 358.84 41.50Q362.44 48.40 362.44 57.52L362.44 57.52L362.44 62.68L319.12 62.68Q319.36 68.80 323.68 72.64Q328 76.48 334.24 76.48L334.24 76.48Q340.60 76.48 343.60 73.72Q346.60 70.96 348.16 67.60L348.16 67.60L360.52 74.08Q358.84 77.20 355.66 80.86Q352.48 84.52 347.20 87.10Q341.92 89.68 333.76 89.68ZM319.24 51.40L319.24 51.40L347.08 51.40Q346.60 46.24 342.94 43.12Q339.28 40 333.40 40L333.40 40Q327.28 40 323.68 43.12Q320.08 46.24 319.24 51.40ZM410.68 88L386.68 88L367.72 28.48L383.80 28.48L397.60 76.96L399.76 76.96L413.56 28.48L429.64 28.48L410.68 88ZM465.40 89.68L465.40 89.68Q456.52 89.68 449.74 85.90Q442.96 82.12 439.18 75.22Q435.40 68.32 435.40 58.96L435.40 58.96L435.40 57.52Q435.40 48.16 439.12 41.26Q442.84 34.36 449.56 30.58Q456.28 26.80 465.16 26.80L465.16 26.80Q473.92 26.80 480.40 30.70Q486.88 34.60 490.48 41.50Q494.08 48.40 494.08 57.52L494.08 57.52L494.08 62.68L450.76 62.68Q451 68.80 455.32 72.64Q459.64 76.48 465.88 76.48L465.88 76.48Q472.24 76.48 475.24 73.72Q478.24 70.96 479.80 67.60L479.80 67.60L492.16 74.08Q490.48 77.20 487.30 80.86Q484.12 84.52 478.84 87.10Q473.56 89.68 465.40 89.68ZM450.88 51.40L450.88 51.40L478.72 51.40Q478.24 46.24 474.58 43.12Q470.92 40 465.04 40L465.04 40Q458.92 40 455.32 43.12Q451.72 46.24 450.88 51.40ZM522.64 88L507.52 88L507.52 28.48L522.40 28.48L522.40 35.20L524.56 35.20Q525.88 31.60 528.94 29.92Q532 28.24 536.08 28.24L536.08 28.24L543.28 28.24L543.28 41.68L535.84 41.68Q530.08 41.68 526.36 44.74Q522.64 47.80 522.64 54.16L522.64 54.16L522.64 88ZM578.32 89.68L578.32 89.68Q566.68 89.68 559.24 84.64Q551.80 79.60 550.24 70.24L550.24 70.24L564.16 66.64Q565.00 70.84 566.98 73.24Q568.96 75.64 571.90 76.66Q574.84 77.68 578.32 77.68L578.32 77.68Q583.60 77.68 586.12 75.82Q588.64 73.96 588.64 71.20L588.64 71.20Q588.64 68.44 586.24 66.94Q583.84 65.44 578.56 64.48L578.56 64.48L575.20 63.88Q568.96 62.68 563.80 60.58Q558.64 58.48 555.52 54.76Q552.40 51.04 552.40 45.16L552.40 45.16Q552.40 36.28 558.88 31.54Q565.36 26.80 575.92 26.80L575.92 26.80Q585.88 26.80 592.48 31.24Q599.08 35.68 601.12 42.88L601.12 42.88L587.08 47.20Q586.12 42.64 583.18 40.72Q580.24 38.80 575.92 38.80L575.92 38.80Q571.60 38.80 569.32 40.30Q567.04 41.80 567.04 44.44L567.04 44.44Q567.04 47.32 569.44 48.70Q571.84 50.08 575.92 50.80L575.92 50.80L579.28 51.40Q586.00 52.60 591.46 54.58Q596.92 56.56 600.10 60.22Q603.28 63.88 603.28 70.12L603.28 70.12Q603.28 79.48 596.50 84.58Q589.72 89.68 578.32 89.68ZM643.60 89.68L643.60 89.68Q634.72 89.68 627.94 85.90Q621.16 82.12 617.38 75.22Q613.60 68.32 613.60 58.96L613.60 58.96L613.60 57.52Q613.60 48.16 617.32 41.26Q621.04 34.36 627.76 30.58Q634.48 26.80 643.36 26.80L643.36 26.80Q652.12 26.80 658.60 30.70Q665.08 34.60 668.68 41.50Q672.28 48.40 672.28 57.52L672.28 57.52L672.28 62.68L628.96 62.68Q629.20 68.80 633.52 72.64Q637.84 76.48 644.08 76.48L644.08 76.48Q650.44 76.48 653.44 73.72Q656.44 70.96 658.00 67.60L658.00 67.60L670.36 74.08Q668.68 77.20 665.50 80.86Q662.32 84.52 657.04 87.10Q651.76 89.68 643.60 89.68ZM629.08 51.40L629.08 51.40L656.92 51.40Q656.44 46.24 652.78 43.12Q649.12 40 643.24 40L643.24 40Q637.12 40 633.52 43.12Q629.92 46.24 629.08 51.40Z" fill="white"/>
</svg>