<svg xmlns="http://www.w3.org/2000/svg" viewBox="0 0 164 64" width="164" height="64">
  <path d="M17.1040 40.4000L10.5520 40.4000L10.5520 20.0160L4 20.0160L4 14.6080L10.5520 14.6080L10.5520 9.8240Q10.5520 7.1720 12.1380 5.5860Q13.7240 4 16.2720 4L16.2720 4L23.0320 4L23.0320 9.4080L18.5600 9.4080Q17.1040 9.4080 17.1040 10.9680L17.1040 10.9680L17.1040 14.6080L23.8640 14.6080L23.8640 20.0160L17.1040 20.0160L17.1040 40.4000ZM39.8800 41.1280L39.8800 41.1280Q36.0320 41.1280 33.0940 39.4900Q30.1560 37.8520 28.5180 34.8620Q26.8800 31.8720 26.8800 27.8160L26.8800 27.8160L26.8800 27.1920Q26.8800 23.1360 28.4920 20.1460Q30.1040 17.1560 33.0160 15.5180Q35.9280 13.8800 39.7760 13.8800L39.7760 13.8800Q43.5720 13.8800 46.3800 15.5700Q49.1880 17.2600 50.7480 20.2500Q52.3080 23.2400 52.3080 27.1920L52.3080 27.1920L52.3080 29.4280L33.5360 29.4280Q33.6400 32.0800 35.5120 33.7440Q37.3840 35.4080 40.0880 35.4080L40.0880 35.4080Q42.8440 35.4080 44.1440 34.2120Q45.4440 33.0160 46.1200 31.5600L46.1200 31.5600L51.4760 34.3680Q50.7480 35.7200 49.3700 37.3060Q47.9920 38.8920 45.7040 40.0100Q43.4160 41.1280 39.8800 41.1280ZM33.5880 24.5400L33.5880 24.5400L45.6520 24.5400Q45.4440 22.3040 43.8580 20.9520Q42.2720 19.6000 39.7240 19.6000L39.7240 19.6000Q37.0720 19.6000 35.5120 20.9520Q33.9520 22.3040 33.5880 24.5400ZM69.8840 41.1280L69.8840 41.1280Q66.0360 41.1280 63.0980 39.4900Q60.1600 37.8520 58.5220 34.8620Q56.8840 31.8720 56.8840 27.8160L56.8840 27.8160L56.8840 27.1920Q56.8840 23.1360 58.4960 20.1460Q60.1080 17.1560 63.0200 15.5180Q65.9320 13.8800 69.7800 13.8800L69.7800 13.8800Q73.5760 13.8800 76.3840 15.5700Q79.1920 17.2600 80.7520 20.2500Q82.3120 23.2400 82.3120 27.1920L82.3120 27.1920L82.3120 29.4280L63.5400 29.4280Q63.6440 32.0800 65.5160 33.7440Q67.3880 35.4080 70.0920 35.4080L70.0920 35.4080Q72.8480 35.4080 74.1480 34.2120Q75.4480 33.0160 76.1240 31.5600L76.1240 31.5600L81.4800 34.3680Q80.7520 35.7200 79.3740 37.3060Q77.9960 38.8920 75.7080 40.0100Q73.4200 41.1280 69.8840 41.1280ZM63.5920 24.5400L63.5920 24.5400L75.6560 24.5400Q75.4480 22.3040 73.8620 20.9520Q72.2760 19.6000 69.7280 19.6000L69.7280 19.6000Q67.0760 19.6000 65.5160 20.9520Q63.9560 22.3040 63.5920 24.5400ZM103.6320 41.1280L103.6320 41.1280Q100.1480 41.1280 98.2760 39.9320Q96.4040 38.7360 95.5200 37.2800L95.5200 37.2800L94.5840 37.2800L94.5840 40.4000L88.1360 40.4000L88.1360 4L94.6880 4L94.6880 17.5720L95.6240 17.5720Q96.1960 16.6360 97.1580 15.8040Q98.1200 14.9720 99.7060 14.4260Q101.2920 13.8800 103.6320 13.8800L103.6320 13.8800Q106.7520 13.8800 109.4040 15.4140Q112.0560 16.9480 113.6680 19.9120Q115.2800 22.8760 115.2800 27.0880L115.2800 27.0880L115.2800 27.9200Q115.2800 32.1320 113.6680 35.0960Q112.0560 38.0600 109.4040 39.5940Q106.7520 41.1280 103.6320 41.1280ZM101.6560 35.4080L101.6560 35.4080Q104.6720 35.4080 106.7000 33.4580Q108.7280 31.5080 108.7280 27.7640L108.7280 27.7640L108.7280 27.2440Q108.7280 23.5000 106.7260 21.5500Q104.7240 19.6000 101.6560 19.6000L101.6560 19.6000Q98.6400 19.6000 96.6120 21.5500Q94.5840 23.5000 94.5840 27.2440L94.5840 27.2440L94.5840 27.7640Q94.5840 31.5080 96.6120 33.4580Q98.6400 35.4080 101.6560 35.4080ZM127.8640 40.4000L121.3120 40.4000L121.3120 4L127.8640 4L127.8640 40.4000ZM146.8960 41.1280L146.8960 41.1280Q143.0480 41.1280 140.1100 39.4900Q137.1720 37.8520 135.5340 34.8620Q133.8960 31.8720 133.8960 27.8160L133.8960 27.8160L133.8960 27.1920Q133.8960 23.1360 135.5080 20.1460Q137.1200 17.1560 140.0320 15.5180Q142.9440 13.8800 146.7920 13.8800L146.7920 13.8800Q150.5880 13.8800 153.3960 15.5700Q156.2040 17.2600 157.7640 20.2500Q159.3240 23.2400 159.3240 27.1920L159.3240 27.1920L159.3240 29.4280L140.5520 29.4280Q140.6560 32.0800 142.5280 33.7440Q144.4000 35.4080 147.1040 35.4080L147.1040 35.4080Q149.8600 35.4080 151.1600 34.2120Q152.4600 33.0160 153.1360 31.5600L153.1360 31.5600L158.4920 34.3680Q157.7640 35.7200 156.3860 37.3060Q155.0080 38.8920 152.7200 40.0100Q150.4320 41.1280 146.8960 41.1280ZM140.6040 24.5400L140.6040 24.5400L152.6680 24.5400Q152.4600 22.3040 150.8740 20.9520Q149.2880 19.6000 146.7400 19.6000L146.7400 19.6000Q144.0880 19.6000 142.5280 20.9520Q140.9680 22.3040 140.6040 24.5400Z" fill="white"/>
  <path d="M32.1020 47.1280L31.3340 47.1280L31.3340 38.7280L34.4420 38.7280Q35.1860 38.7280 35.7800 39.0100Q36.3740 39.2920 36.7220 39.8200Q37.0700 40.3480 37.0700 41.1040L37.0700 41.1040L37.0700 41.2480Q37.0700 42.0040 36.7160 42.5380Q36.3620 43.0720 35.7680 43.3480Q35.1740 43.6240 34.4420 43.6240L34.4420 43.6240L32.1020 43.6240L32.1020 47.1280ZM32.1020 39.4240L32.1020 42.9280L34.3580 42.9280Q35.2580 42.9280 35.7800 42.4840Q36.3020 42.0400 36.3020 41.2360L36.3020 41.2360L36.3020 41.1160Q36.3020 40.3000 35.7920 39.8620Q35.2820 39.4240 34.3580 39.4240L34.3580 39.4240L32.1020 39.4240ZM49.7180 47.1280L44.5340 47.1280L44.5340 38.7280L45.3020 38.7280L45.3020 46.4320L49.7180 46.4320L49.7180 47.1280ZM57.2060 47.1280L56.4020 47.1280L59.1500 38.7280L60.5180 38.7280L63.2660 47.1280L62.4620 47.1280L61.7420 44.8960L57.9260 44.8960L57.2060 47.1280ZM59.7620 39.1840L58.1420 44.2000L61.5260 44.2000L59.9060 39.1840L59.7620 39.1840ZM73.5140 47.1280L72.7460 47.1280L72.7460 39.4240L69.9380 39.4240L69.9380 38.7280L76.3220 38.7280L76.3220 39.4240L73.5140 39.4240L73.5140 47.1280ZM84.4580 47.1280L83.6900 47.1280L83.6900 38.7280L88.6820 38.7280L88.6820 39.4240L84.4580 39.4240L84.4580 42.5680L88.3340 42.5680L88.3340 43.2640L84.4580 43.2640L84.4580 47.1280ZM99.1580 47.2960L99.1580 47.2960Q97.6820 47.2960 96.8060 46.4260Q95.9300 45.5560 95.9300 43.8760L95.9300 43.8760L95.9300 41.9800Q95.9300 40.3000 96.8060 39.4300Q97.6820 38.5600 99.1580 38.5600L99.1580 38.5600Q100.6340 38.5600 101.5100 39.4300Q102.3860 40.3000 102.3860 41.9800L102.3860 41.9800L102.3860 43.8760Q102.3860 45.5560 101.5100 46.4260Q100.6340 47.2960 99.1580 47.2960ZM99.1580 46.6000L99.1580 46.6000Q100.3340 46.6000 100.9760 45.8920Q101.6180 45.1840 101.6180 43.9000L101.6180 43.9000L101.6180 41.9560Q101.6180 40.6720 100.9760 39.9640Q100.3340 39.2560 99.1580 39.2560L99.1580 39.2560Q97.9940 39.2560 97.3460 39.9640Q96.6980 40.6720 96.6980 41.9560L96.6980 41.9560L96.6980 43.9000Q96.6980 45.1840 97.3460 45.8920Q97.9940 46.6000 99.1580 46.6000ZM110.9540 47.1280L110.1860 47.1280L110.1860 38.7280L113.4740 38.7280Q114.2540 38.7280 114.8480 38.9920Q115.4420 39.2560 115.7840 39.7540Q116.1260 40.2520 116.1260 40.9600L116.1260 40.9600L116.1260 41.0800Q116.1260 41.9320 115.7180 42.4180Q115.3100 42.9040 114.7580 43.0600L114.7580 43.0600L114.7580 43.2040Q115.1780 43.2160 115.4660 43.4680Q115.7540 43.7200 115.7540 44.2720L115.7540 44.2720L115.7540 47.1280L114.9860 47.1280L114.9860 44.3560Q114.9860 43.9720 114.7760 43.7680Q114.5660 43.5640 114.1460 43.5640L114.1460 43.5640L110.9540 43.5640L110.9540 47.1280ZM110.9540 39.4240L110.9540 42.8680L113.4020 42.8680Q114.3380 42.8680 114.8480 42.4300Q115.3580 41.9920 115.3580 41.1760L115.3580 41.1760L115.3580 41.1160Q115.3580 40.3000 114.8600 39.8620Q114.3620 39.4240 113.4020 39.4240L113.4020 39.4240L110.9540 39.4240ZM124.5020 47.1280L123.7580 47.1280L123.7580 38.7280L125.2580 38.7280L127.8020 46.6720L127.9460 46.6720L130.4900 38.7280L131.9900 38.7280L131.9900 47.1280L131.2460 47.1280L131.2460 39.1840L131.1020 39.1840L128.5580 47.1280L127.1900 47.1280L124.6460 39.1840L124.5020 39.1840L124.5020 47.1280Z" fill="rgba(255,255,255,0.5)"/>
</svg>